<?xml version="1.0" standalone="no"?>
<!DOCTYPE svg PUBLIC "-//W3C//DTD SVG 1.1//EN" "http://www.w3.org/Graphics/SVG/1.1/DTD/svg11.dtd">
<svg 
	id="BasisLogo-Page%201" 
	viewBox="0 0 800 555" 
	style="background-color:#ffffff00" 
	version="1.1"
    xmlns="http://www.w3.org/2000/svg"
    xmlns:xlink="http://www.w3.org/1999/xlink">
    <g fill="#365B74">
        <path d="M 110.4207 99.0522 C 111.1392 96.1527 117.8327 96.4565 119.1289 96.9181 C 112.2547 111.0226 104.8879 124.6271 90.4038 131.1196 C 88.3293 130.4737 95.2632 122.3934 95.5474 119.0351 C 95.9166 114.69 89.2696 110.3726 88.0185 107.9056 C 86.2044 104.1785 119.3945 106.0461 110.4207 99.0522 Z" />
        <path d="M 363.6837 517.4576 C 366.6865 525.1306 386.633 516.5517 385.5771 504.6384 C 381.1254 496.6749 361.1935 504.1091 363.6837 517.4576 Z" />
        <path d="M 92.1263 168.133 C 90.7411 170.5841 89.9097 173.8495 89.6853 178.1496 C 91.6216 186.7723 104.5173 192.0552 117.7198 188.8401 C 115.6972 178.7068 111.3304 171.9874 118.1116 163.187 C 107.1589 165.894 103.3327 168.2921 96.331 166.3609 L 91.0784 165.6076 C 97.6511 157.7755 102.4521 150.5852 108.7977 145.3342 C 110.0807 144.2717 117.4821 151.0136 119.0585 150.7748 C 119.6615 150.6781 124.756 146.5584 121.7505 145.4828 C 116.575 143.6258 112.8072 138.0618 111.0767 131.4088 C 109.8722 126.7717 118.927 119.3521 120.8116 117.8016 C 130.5916 116.7272 123.833 130.2627 133.8215 128.9829 C 136.6304 115.8691 139.6863 101.5378 143.4023 89.3459 C 138.6956 82.0045 127.2036 95.6687 121.3973 90.5038 C 117.9867 88.1057 134.2889 74.2545 142.7754 75.4297 C 145.0983 75.7507 138.3822 85.6361 148.1117 81.3068 C 148.6217 79.0255 151.2473 75.1167 151.2473 75.1167 C 140.6478 72.021 179.9618 59.9232 181.0641 61.8239 C 183.8425 67.1718 173.8433 70.4837 172.5922 76.9789 C 178.1582 73.0754 203.3414 55.6351 204.2166 64.8533 C 204.2697 72.521 181.7388 73.4945 169.45 83.1637 C 168.4101 83.9755 164.7207 89.2132 163.4869 92.1299 C 183.8876 85.0034 206.8064 73.8712 227.3491 79.1409 C 244.6103 65.8402 282.4275 48.2115 278.2971 43.4737 C 263.2805 46.6663 251.6717 58.1101 250.1006 57.4947 C 262.9724 42.6461 304.5494 28.7272 299.6859 46.978 C 316.4039 43.1302 352.5557 36.4692 356.176 35.5328 C 360.5972 34.3855 384.7923 16.9744 404.0349 10.1702 C 409.6819 8.3133 415.9557 8.6237 417.6132 11.4077 C 420.5031 20.3765 401.6736 33.0618 388.985 39.1976 C 400.5805 40.5756 409.2568 46.6225 408.5769 56.5623 C 405.8091 69.1985 389.5122 78.0493 371.0851 79.1409 C 370.8992 82.7234 373.453 86.6402 375.4319 87.0818 C 378.4811 87.7543 389.0687 83.7605 393.3544 83.8905 C 394.8618 83.9357 393.9626 87.2847 393.1924 87.7171 C 389.3276 89.8791 381.322 88.4492 379.2422 90.273 C 376.3722 92.7891 384.1082 97.5189 385.8308 102.3336 C 399.9537 92.1299 405.2859 85.9424 415.3183 76.4789 C 418.8563 73.1444 418.1497 60.2721 416.58 50.9942 C 418.8138 51.1693 409.5065 46.4248 411.5545 46.4169 C 433.3005 46.3506 452.9828 40.4098 465.0364 30.6465 C 470.1973 42.3689 484.4131 42.0558 495.2131 43.4737 C 484.3733 53.1469 458.2392 60.6342 452.6613 75.5557 C 452.1381 76.9524 457.2538 79.9593 459.2619 79.755 C 467.419 75.4297 469.9264 68.006 474.5349 66.7235 C 477.3079 65.9475 478.5191 68.4597 484.368 70.1694 C 508.7543 21.0463 581.2411 52.3564 609.8959 76.0478 C 611.9517 71.4042 613.8138 66.8442 613.3516 63.6755 C 612.6318 58.7415 603.9886 54.9706 600.2328 53.046 C 594.0571 49.8787 596.4078 57.7984 590.5537 49.884 C 587.6159 41.4073 607.8453 54.4374 615.2215 57.7984 C 616.0422 53.2782 617.9361 47.9263 622.4357 47.7207 C 626.9352 47.5138 635.8705 53.0885 636.8905 56.8739 C 636.6807 58.1592 632.5078 54.383 629.3549 55.3261 C 627.238 55.9601 624.6695 62.1647 625.0227 64.8533 C 629.9819 70.481 633.2117 77.7906 640.3382 81.3041 C 641.5973 81.9249 642.5402 79.4592 644.4128 80.3796 C 650.947 83.5683 664.0153 93.4629 671.4074 96.7708 C 673.2057 97.5746 675.2217 92.545 677.3599 91.8182 C 678.6774 86.9757 663.0724 84.3349 670.345 79.816 C 681.0122 79.9938 692.3726 89.7876 689.9209 93.6751 C 681.3574 100.3798 666.7007 105.7371 653.5234 101.7182 C 661.986 108.4548 665.8189 117.0774 669.5215 115.9434 C 678.6242 113.1594 691.4987 109.3461 698.0727 116.2537 C 700.6333 118.9397 697.1351 122.4372 691.1799 124.2914 C 689.6367 124.9971 686.2633 122.3802 683.3309 121.201 C 678.4755 119.2566 673.8777 118.3441 673.9095 121.5101 C 675.1632 130.7256 669.1603 129.2812 669.4631 137.5338 C 674.2256 141.9201 677.9841 135.1251 681.129 134.4991 C 684.2632 133.8837 691.4562 135.1304 692.7418 140.6879 C 694.0513 145.106 678.3029 141.9201 686.46 151.1994 C 696.6437 147.8808 706.8647 147.4881 718.1666 151.5084 C 725.0647 145.6366 705.1912 138.5326 709.056 134.4991 C 709.6907 132.3385 712.8835 128.374 715.6432 130.1725 C 728.2786 138.3535 726.8231 161.6935 716.2542 174.2886 C 713.6352 177.4028 714.3975 184.2947 716.3923 188.8401 C 718.7855 191.7223 728.8232 185.5282 733.2218 189.5536 C 737.6151 193.5766 713.9459 221.2855 715.027 222.3373 C 715.9062 223.1994 717.0882 222.5549 717.9037 222.6053 C 719.9755 222.7432 743.023 189.998 744.5211 189.5536 C 747.6554 188.6253 752.2081 189.1319 751.7379 190.1718 C 742.6751 201.3688 734.1488 212.4029 726.6743 225.181 C 729.8113 226.3482 737.9259 222.6809 737.4929 227.3191 C 737.2805 233.2931 733.421 238.7271 729.7209 240.7432 C 727.3463 242.0337 725.0435 239.7272 723.8137 242.437 C 730.7595 246.8511 730.1035 260.0311 723.8137 268.1126 C 722.1695 270.2135 727.5775 271.2083 731.3466 270.8927 C 747.6554 238.7271 806.3222 267.151 778.7273 281.7224 C 776.1747 283.07 769.003 285.7399 764.8381 282.9029 C 759.1646 280.0883 758.4341 276.4024 760.8327 270.5836 C 765.542 264.7065 778.0978 276.157 774.9555 267.4919 C 774.063 264.9996 759.8951 266.5675 756.126 269.3501 C 744.2953 278.0962 736.6828 297.0206 729.6996 310.6927 C 734.0611 309.8187 753.2998 307.7005 753.2998 310.4832 C 749.5546 319.0329 742.4174 327.8028 733.2218 330.8972 C 730.7861 330.9356 735.4211 319.7584 727.4393 317.1111 C 712.0999 331.4224 694.9836 343.9671 681.2246 359.8648 C 715.6432 353.7782 725.997 337.3936 729.2402 340.6273 C 734.1594 342.9565 722.6024 348.4542 722.5015 355.5873 C 763.3879 393.2573 689.9209 439.0393 658.1186 451.7802 C 663.1467 456.2488 659.5263 472.246 652.8859 472.2407 C 651.3162 469.4553 650.6335 464.7508 649.364 463.1022 C 640.4073 451.5283 607.4761 448.1806 605.4972 456.1546 C 602.0735 465.2229 599.2234 488.0151 605.476 490.262 C 614.746 491.1931 625.6656 483.4365 630.9194 478.4215 C 631.873 477.5077 635.3074 473.1678 638.2744 473.1625 C 628.9087 489.1147 621.7211 504.4698 593.2629 501.3079 C 580.3885 497.3288 583.8468 471.9476 582.1416 456.0577 C 577.8014 456.0577 573.4559 456.0577 569.121 456.0577 C 567.963 466.4763 571.0123 481.0995 566.4569 488.1278 C 572.2076 489.3322 576.9382 480.8951 579.7642 485.5308 C 571.8143 494.2172 555.9198 509.0405 553.1522 507.3706 C 536.3067 499.1459 521.7589 488.7035 516.8689 468.8851 C 513.4185 473.4556 491.2661 486.1595 495.9728 487.0813 C 498.8017 488.3135 514.4836 485.2218 518.8823 487.389 C 516.3297 497.1351 503.0674 510.6932 501.9412 507.4966 C 500.2492 492.282 488.756 483.6779 473.2891 481.7148 C 472.2532 496.8871 468.0485 502.2324 474.9651 513.7823 C 457.3415 515.8129 443.8428 521.9672 433.7866 531.5648 C 431.2606 533.9734 428.8222 539.9726 426.8513 539.4314 C 410.1069 529.8153 393.0463 548.6271 387.6756 547.9838 C 395.4368 528.4837 417.6078 506.868 444.4936 520.1899 C 447.9493 507.5444 437.3725 497.8845 442.3156 490.4834 C 419.4088 499.4496 389.2958 502.3994 369.0053 492.4001 C 363.4167 501.28 356.8786 507.3375 345.9723 510.9001 C 345.8395 515.9257 348.4758 521.4155 346.825 524.4674 C 333.4179 529.1429 330.5666 527.6202 323.3165 531.5594 C 312.3878 537.491 305.0408 549.2823 302.977 546.4651 C 306.7766 524.9436 328.7086 525.1558 325.561 496.6749 C 309.5071 502.4286 290.4213 494.7849 279.9732 498.817 C 279.9081 503.0905 279.8417 507.3706 279.7793 511.6455 C 287.6017 512.1376 294.2846 513.761 299.524 512.1376 C 305.1005 510.4053 310.1978 505.6385 312.7038 507.4966 C 304.6357 537.0387 254.4966 525.2036 229.5936 530.887 C 228.6029 530.07 227.3491 529.4161 228.1195 528.672 C 236.8821 520.1143 249.2958 509.8682 243.1985 492.4001 C 234.8383 490.5418 235.4053 497.6232 230.0876 498.817 C 225.6519 491.892 219.8535 486.2881 210.792 483.8477 C 206.7134 506.6716 172.2603 515.0543 146.0758 512.1376 C 143.381 511.8445 143.5617 510.2793 143.1593 509.5021 C 160.7869 508.3429 174.7929 503.5335 184.6061 494.5408 C 185.3033 483.9976 178.3933 474.7196 174.7557 470.4581 C 156.3829 485.9963 109.2679 495.7769 111.4765 453.9237 C 117.8327 448.739 143.4859 440.7808 148.3468 453.9237 C 147.7411 459.8246 140.2082 458.8033 137.3728 462.4761 C 145.4874 468.3107 160.9782 466.5599 164.5866 457.7037 C 158.5491 444.1099 130.3817 432.04 123.3416 431.5135 C 99.5224 429.7468 72.8996 439.144 62.2842 451.2126 C 61.5312 452.0681 60.0305 450.8638 59.4501 451.7802 C 70.44 435.4421 86.7144 429.8715 105.4284 423.993 C 87.389 415.6396 79.8282 403.7435 77.6582 403.2753 C 62.2577 399.9767 53.1842 379.7709 68.5581 361.2005 C 43.1372 350.0724 34.8221 314.575 44.6592 285.0383 C 39.3947 283.8287 33.5285 283.2067 33.9456 276.486 C 38.0122 251.9734 58.2017 238.7271 66.0494 229.1389 C 50.285 226.0577 30.3916 220.8253 20.4137 229.6203 C 19.2397 230.6469 21.9583 235.5624 21.0512 236.9498 C 20.1441 238.3425 16.7814 238.113 15.0164 238.0135 C 13.9539 212.1335 64.7983 218.008 78.9158 220.487 C 80.4936 220.7616 85.5044 213.9892 91.3586 210.2144 C 83.9519 200.8741 77.7737 196.4321 78.7352 184.5626 C 78.9889 181.5053 84.3358 174.3815 89.2696 167.751 L 92.1263 168.133 ZM 366.0622 34.9147 C 371.0771 35.2185 380.3339 36.4613 382.2211 35.8432 C 394.0516 31.9583 407.4348 22.5637 407.8013 16.0446 C 407.3232 11.153 379.9992 23.5995 366.0622 34.9147 ZM 325.82 56.301 C 334.8311 50.9942 340.2776 47.0483 349.1146 41.0982 C 340.4315 41.4974 331.5387 44.1887 326.5186 47.9025 C 325.4906 48.6571 325.5743 54.7079 325.82 56.301 ZM 339.227 55.0171 C 344.4052 54.0872 357.4218 48.8362 372.1808 41.0982 C 367.154 40.4855 357.4218 40.1711 355.86 41.0982 C 348.3084 45.5733 338.5059 54.1987 339.227 55.0171 ZM 325.658 66.9914 C 325.5743 75.7414 318.3455 91.862 327.3366 99.0522 C 341.5791 93.057 348.1703 91.8182 356.176 90.659 C 353.9727 86.9505 353.0165 81.2471 350.3683 78.5254 C 348.7095 76.3276 343.9948 82.352 339.3811 82.8546 C 334.7766 83.3521 326.5186 80.0706 329.8667 75.5371 C 340.3611 66.9118 361.6717 73.8845 366.3757 72.9534 C 374.3203 71.3883 380.8492 60.3702 380.3339 44.8093 C 366.8379 49.7593 346.6125 63.3824 325.658 66.9914 ZM 446.082 68.6242 C 448.2786 67.388 447.4792 57.2864 450.6107 57.8846 C 456.7519 59.0346 464.9142 60.2721 464.5929 57.7984 C 452.0397 55.0171 448.2786 49.7567 442.629 45.1211 C 438.5624 49.3204 443.3064 64.7459 446.082 68.6242 ZM 559.1657 119.868 C 566.2551 117.4023 572.4067 126.3938 576.5185 119.868 C 572.2341 113.4711 574.6326 106.2649 577.8864 100.4833 C 569.1768 99.0071 571.2805 110.195 563.6041 109.748 C 557.803 100.7897 544.6232 98.9315 546.4772 94.7773 C 551.7842 92.1246 556.6689 89.0568 559.6571 84.0935 C 560.3132 81.6132 570.9777 93.6751 579.1428 96.4565 C 585.0793 98.4885 590.4421 92.4417 598.6364 88.3643 C 586.6995 52.5009 511.1528 30.5643 488.2726 71.2675 C 492.9129 74.4814 505.5855 76.6062 504.4513 79.4499 C 503.3862 81.5535 496.7644 80.503 495.0352 82.8546 C 493.3193 85.1944 494.4136 91.5145 494.4243 94.7773 C 507.907 94.2932 511.0466 86.8736 518.4467 84.0935 C 520.7761 84.3999 533.0104 93.6751 542.0759 99.0522 C 544.6232 101.7182 535.5231 105.7371 535.2151 108.2121 C 535.0158 110.7003 535.8419 119.6559 537.4037 119.9649 C 540.121 120.4981 544.3098 113.1594 548.395 110.3726 C 550.3552 109.0344 555.2904 111.9218 560.6266 112.5466 C 561.8829 113.1594 555.9251 119.3468 559.1657 119.868 ZM 248.0607 80.0706 C 259.6801 76.9736 278.5282 77.2614 288.2339 76.9736 C 290.1317 76.9179 302.8189 70.7901 306.1019 69.1229 C 306.1935 62.7126 306.2985 56.301 306.3941 49.884 C 303.7605 50.3801 297.1931 51.0658 294.347 54.0872 C 285.352 63.6583 266.5822 71.0952 248.0607 80.0706 ZM 617.4315 84.0882 C 622.7624 87.4943 630.2687 92.2307 635.5226 85.9199 C 628.8344 82.5788 627.7825 77.2826 622.1328 71.4108 C 621.83 74.366 617.5749 79.755 617.4315 84.0882 ZM 239.2793 89.3459 C 240.209 90.667 243.8997 95.2826 243.67 98.3174 C 251.2042 96.1501 265.4758 90.8924 269.5583 87.802 C 257.3228 86.2567 246.4949 84.3999 239.2793 89.3459 ZM 161.7644 98.0004 C 158.6726 107.9348 156.112 123.9824 156.112 132.3332 C 174.4861 128.699 200.3625 131.1023 215.7789 124.6629 C 219.4789 123.1177 220.9558 114.8836 222.0142 110.3726 C 216.2809 112.276 205.5207 118.0152 201.3266 111.882 C 199.5776 102.9583 210.8729 95.223 215.2663 88.7344 C 192.6702 86.2567 179.0255 91.2027 161.7644 98.0004 ZM 244.6422 116.1582 C 255.9813 107.9666 269.0205 101.4821 279.7089 92.6406 C 278.3423 92.313 276.4087 88.1031 274.5161 88.936 C 266.5822 92.4363 253.4832 100.287 245.5532 104.1905 C 244.3048 104.8073 244.1428 113.7841 244.6422 116.1582 ZM 433.5608 103.331 C 436.9767 106.6668 441.0698 107.3791 444.2014 107.9056 C 446.7035 108.3208 463.7481 96.0188 465.8572 89.0369 C 462.3962 87.1799 460.659 83.4064 458.3243 84.3999 C 452.0106 87.095 449.2349 97.125 445.4472 101.4078 C 442.8893 104.3099 440.1163 94.2932 433.5608 103.331 ZM 617.7661 114.0202 C 620.5497 108.8434 623.2962 103.6347 624.5367 96.9181 C 621.514 94.6049 618.369 93.9895 615.8881 94.7773 C 612.9717 98.2299 610.9159 113.6142 617.7661 114.0202 ZM 593.9376 111.882 C 594.5166 116.2537 605.5026 123.0593 608.9529 122.5672 C 609.2717 119.9649 606.7536 106.0461 602.8438 96.9181 C 599.2234 98.9315 594.0916 104.0765 593.9376 111.882 ZM 330.2863 103.8854 C 330.2239 107.448 331.4962 110.4576 331.4365 114.0202 C 344.6403 116.6344 361.7712 116.3692 372.6509 110.9987 C 367.3159 104.5022 361.5043 96.5374 359.1602 96.1447 C 351.2183 94.8397 340.2576 100.413 330.2863 103.8854 ZM 283.4926 128.9829 C 289.133 122.5845 297.5796 104.1268 286.9775 99.8613 C 279.1152 106.7822 278.7753 117.6941 283.4926 128.9829 ZM 504.7382 128.9829 C 508.6401 124.9414 506.5364 114.8624 507.2402 107.6072 C 502.746 106.3525 500.2943 103.1122 496.4908 101.1916 C 495.67 104.1905 495.0564 115.9858 496.9238 121.5101 C 497.5585 123.363 501.0381 127.5994 504.7382 128.9829 ZM 641.2759 134.8108 C 645.9905 137.5948 656.3442 130.1725 657.5927 126.4628 C 657.9061 115.3253 649.8127 105.6548 638.1415 102.9556 C 628.088 116.2537 632.9753 126.9879 641.2759 134.8108 ZM 262.1914 111.6168 C 260.3095 110.687 244.7099 119.7408 244.6103 121.8217 C 244.929 128.6273 262.0945 113.6938 262.1914 111.6168 ZM 166.155 146.8727 C 167.7235 149.6568 172.2549 152.7724 176.5088 153.0549 C 181.2182 153.3705 194.6358 145.4324 196.9148 141.6137 C 196.2799 139.4531 166.4711 144.0914 166.155 146.8727 ZM 696.5109 161.4056 C 702.1552 163.886 705.6056 166.9738 708.7479 171.6093 C 711.7015 168.373 715.1545 164.5266 715.9594 161.7187 C 715.4361 157.4663 698.5004 153.23 696.5109 161.4056 ZM 85.1964 222.6411 C 91.0917 223.49 98.9978 226.6652 105.277 227.908 C 107.5666 226.2275 109.2028 221.633 112.9533 216.6234 C 105.9025 214.2903 98.6831 212.1335 97.4678 211.7092 C 92.6256 210.0261 89.2696 216.1498 85.1964 222.6411 ZM 46.3233 280.7608 C 49.7312 273.9884 52.629 266.0408 59.4554 259.1412 C 60.907 257.6808 62.2178 257.6649 63.538 258.5257 C 61.0265 265.3246 52.2426 276.7711 55.6956 280.1772 C 68.2473 278.3216 84.0848 266.6934 89.9389 258.2432 C 92.1688 255.0175 89.931 251.5597 90.8806 247.7901 C 91.7212 244.4212 95.8635 240.7976 95.8609 236.8769 C 89.5551 234.5862 76.2583 230.4586 74.2091 231.3061 C 64.4769 235.3304 20.2304 282.3339 46.3233 280.7608 ZM 103.079 265.944 C 88.9562 274.6012 74.5225 286.9734 53.8111 286.3634 C 51.6131 303.0596 52.556 320.0701 56.6385 329.97 C 74.8386 321.931 75.7789 309.2457 94.6071 313.2738 C 104.836 306.1407 104.9609 288.5306 103.079 265.944 ZM 692.9915 300.0075 C 693.0977 303.7267 691.8094 308.0122 692.1123 311.7246 C 702.7794 311.1013 715.6432 303.9906 720.9875 288.5306 C 713.1412 293.1689 702.7343 300.3445 692.9915 300.0075 ZM 104.0233 333.6773 C 109.3622 333.9624 116.1699 333.672 118.773 331.2076 C 118.9563 324.7057 117.6574 319.017 110.9253 315.7396 C 111.0661 325.1978 104.1242 326.548 104.0233 333.6773 ZM 60.4023 337.3936 C 62.6654 345.0269 68.2473 349.4517 75.4655 353.1681 C 81.1138 343.8889 93.1277 342.0586 87.3173 332.0697 C 75.4655 327.8028 70.1292 332.441 60.4023 337.3936 ZM 79.1894 355.8991 C 91.9696 361.064 109.313 373.8566 125.8065 368.4146 C 120.1715 363.3466 113.9414 358.8754 113.0861 349.1691 C 99.0098 346.8122 86.0065 346.4275 79.1894 355.8991 ZM 691.7988 388.4254 C 700.7395 387.9452 714.8118 388.8591 714.3868 386.8775 C 713.1412 380.3863 710.3123 378.2177 707.178 369.8669 C 705.2151 364.6637 708.4318 356.8753 698.5428 361.999 C 693.5226 367.8204 692.2664 378.032 691.7988 388.4254 ZM 75.1467 396.7828 C 73.2808 383.3309 77.9769 376.0558 82.4233 368.4146 C 78.2903 366.7713 75.2304 364.1557 73.2675 363.3705 C 63.2272 374.1975 63.9616 391.9323 75.1467 396.7828 ZM 676.7303 433.8904 C 678.6774 420.1002 685.7401 382.5589 685.2036 369.2449 C 685.1398 367.5326 680.8793 370.9798 680.1224 369.6216 C 677.676 392.4456 672.0237 419.3508 671.3994 434.8175 C 671.3304 436.5604 674.5922 433.71 676.7303 433.8904 ZM 103.6288 399.7153 C 108.8057 399.9488 118.0386 394.6022 121.1038 391.9323 C 116.8074 386.9584 115.3186 381.9328 104.334 375.4456 C 106.7618 386.2939 105.0193 389.7544 100.383 392.4615 C 99.622 392.9018 96.9353 392.0556 92.5181 390.9323 C 88.3811 389.8698 88.1753 381.6265 88.6454 378.5268 C 89.1182 375.4456 93.5115 374.6657 92.882 373.8831 C 92.2578 373.1245 88.8618 372.6869 88.8618 372.6869 C 84.9812 373.7731 83.8576 382.5536 84.3251 386.0326 C 86.6333 393.3329 90.1607 399.1106 103.6288 399.7153 ZM 142.6214 412.5585 C 135.4046 407.6059 128.5636 400.8521 124.5727 397.1661 C 121.9949 398.202 115.316 402.2673 110.9253 403.1944 C 120.7279 406.1335 129.2848 411.3117 142.6214 412.5585 ZM 689.9103 402.6546 C 688.6619 410.691 686.877 420.8827 686.7814 428.0052 C 697.8336 423.1628 707.4091 412.8357 710.9684 400.4793 C 703.4117 400.7937 691.4827 399.8692 689.9103 402.6546 ZM 206.8808 456.0577 C 207.2592 464.8224 207.6776 473.5392 210.861 479.5729 C 218.0685 476.6562 223.2016 471.6703 226.2721 464.6128 C 228.9004 467.6727 234.9804 469.2299 240.5278 469.4553 C 242.488 466.7375 243.3818 462.3845 242.0962 460.1774 C 239.8305 456.3138 231.4703 453.3136 228.2922 450.5892 C 228.6029 453.0576 226.3265 457.8218 224.5231 458.6229 C 221.0661 460.1774 211.9686 457.6985 206.8808 456.0577 ZM 482.4848 461.7279 C 483.1116 466.0546 486.2433 469.759 488.4425 472.8535 C 494.7218 471.3083 500.9956 458.9374 497.5161 458.1985 C 492.1294 457.8842 484.0546 459.2437 482.4848 461.7279 ZM 373.6722 471.0204 C 379.7468 484.1024 400.8528 496.212 419.5894 489.9834 C 413.4882 483.2694 398.3772 480.2825 390.2188 477.8062 C 391.3676 472.181 400.8872 468.8347 399.9457 464.5054 C 394.0463 463.0132 385.7857 460.6497 382.998 460.7955 C 381.0272 460.895 374.8409 468.2125 373.6722 471.0204 ZM 540.7957 464.6128 C 542.8489 475.9505 550.6819 481.6884 559.9838 485.9911 C 562.5046 478.7385 562.2601 468.905 563.4501 461.4137 C 556.0685 461.9919 544.9605 460.8141 540.7957 464.6128 ZM 347.1516 503.0905 C 354.581 497.4999 354.4482 484.3503 354.1507 471.0204 C 349.8119 471.0204 345.473 471.0204 341.1355 471.0204 C 344.619 480.3329 348.1969 495.8035 347.1516 503.0905 ZM 256.8433 514.9176 C 262.4916 512.7583 268.9342 511.6455 273.2744 511.6455 C 274.6967 496.2279 272.6634 485.8717 271.2835 473.1678 C 269.1134 473.1678 265.1837 473.1625 263.0136 473.1625 C 262.1914 486.0786 260.9019 505.2273 256.8433 514.9176 ZM 278.0315 483.8477 C 289.4862 482.7508 296.6566 483.3039 312.7038 482.7508 C 312.3745 469.9924 276.3355 468.9792 278.0315 483.8477 ZM 426.3041 488.6306 C 429.8422 487.8215 437.4043 486.2775 440.2331 483.772 C 443.0752 481.2665 441.1841 474.083 440.8839 469.4447 C 434.7801 474.0936 424.4235 488.3135 426.3041 488.6306 ZM 220.6065 96.1527 C 220.6065 96.1527 210.8729 103.5737 213.0709 105.119 C 215.2663 106.6694 220.912 104.1905 220.912 104.1905 C 220.912 104.1905 222.8044 100.4833 220.6065 96.1527 ZM 279.4367 489.2486 C 279.4367 489.2486 302.6622 486.1595 313.3333 486.7723 C 313.3333 486.7723 314.5884 492.0314 313.3333 492.0314 C 312.081 492.0314 292.3084 491.0989 280.0728 491.7222 C 280.0728 491.7222 279.4367 492.3404 279.4367 489.2486 Z" />
    </g>
    <g>
        <g>
            <path d="M 215.7364 285.2094 L 198.5988 278.5285 L 198.5988 227.0048 C 198.5988 223.3268 197.3066 220.1409 194.6677 217.2387 C 192.1297 214.4667 189.2996 213.1655 185.7456 213.1655 C 183.3962 213.1655 175.9005 213.5237 163.4604 214.2306 L 163.4604 285.2094 L 146.3161 285.2094 L 146.3161 176.3126 L 163.4604 169.6344 L 163.4604 197.3274 C 181.0363 196.3857 184.9169 196.2677 186.2542 196.2677 C 194.5947 196.2677 201.7052 199.4669 207.3894 205.7352 C 212.9275 211.8485 215.7364 219.0028 215.7364 227.0048 L 215.7364 285.2094 Z" fill="#ffffff"/>
        </g>
        <g>
            <path d="M 254.7688 286.8872 L 254.6532 286.8872 C 246.3142 286.8872 239.2063 283.7013 233.5141 277.421 C 227.976 271.3078 225.1658 264.1508 225.1658 256.1568 L 225.1658 206.8561 L 242.3153 197.9429 L 242.3153 256.0984 C 242.3153 259.7645 243.5997 262.9703 246.2545 265.8923 C 248.7792 268.6909 251.6119 269.9947 255.1686 269.9947 L 256.2921 269.9947 L 280.9321 268.5967 L 280.9321 197.9429 L 298.079 197.9429 L 298.079 285.0025 L 254.7688 286.8872 Z" fill="#ffffff"/>
        </g>
        <g>
            <path d="M 408.7814 287.7135 L 408.7814 292.1794 C 408.7814 295.8759 409.974 298.6428 412.532 300.8524 C 415.2439 303.1922 418.6119 304.3395 422.8193 304.3395 L 431.4837 304.3395 C 435.4467 304.3395 438.7271 303.0172 441.5054 300.3034 C 444.2705 297.5803 445.6066 294.3679 445.6066 290.4578 L 445.6066 283.7451 C 441.4178 285.8315 436.6951 286.8872 431.4837 286.8872 L 421.114 286.8872 C 412.5585 286.8872 405.1345 283.8579 399.0413 277.8892 C 392.944 271.9179 389.8496 264.5938 389.8496 256.1568 L 389.8496 227.0048 C 389.8496 218.8609 392.7356 211.6522 398.425 205.592 C 404.2208 199.4033 411.4243 196.2677 419.8417 196.2677 L 421.3531 196.2783 L 462.7494 198.1776 L 462.7494 290.5043 C 462.7494 298.9466 459.663 306.2534 453.5618 312.2366 C 447.4685 318.2132 440.0445 321.2347 431.4837 321.2347 L 422.8193 321.2347 C 414.2399 321.2347 406.8451 318.5116 400.8661 313.1452 C 395.3585 308.2005 392.2933 302.0011 391.7314 294.6797 L 408.7814 287.7135 ZM 420.0463 213.1655 C 416.4046 213.1987 413.5147 214.4866 410.9515 217.2175 C 408.2927 220.0388 406.9911 223.2432 406.9911 226.9796 L 406.9911 256.0984 C 406.9911 259.9967 408.3326 263.225 411.0817 265.952 C 413.8202 268.667 417.1059 269.9947 421.114 269.9947 L 431.4837 269.9947 C 435.452 269.9947 438.7271 268.667 441.5054 265.952 C 444.2705 263.2436 445.6066 260.055 445.6066 256.1886 L 445.6066 214.5702 L 420.0463 213.1655 Z" fill="#ffffff"/>
        </g>
        <g>
            <path d="M 502.313 286.8872 L 502.1855 286.8872 C 493.7629 286.8872 486.554 283.7504 480.753 277.559 C 475.0768 271.4975 472.1869 264.2954 472.1869 256.1568 L 472.1869 227.0048 C 472.1869 218.5625 475.2839 211.241 481.3824 205.2698 C 487.4731 199.2985 494.9023 196.2677 503.4473 196.2677 L 513.8223 196.2677 C 522.3751 196.2677 529.8018 199.2985 535.9136 205.2698 C 541.9963 211.241 545.088 218.5625 545.088 227.0048 L 545.088 252.6274 L 489.3377 252.6274 L 489.3377 256.1276 C 489.3377 259.8733 490.6312 263.0672 493.3034 265.9188 C 495.8958 268.7015 498.8229 269.9947 502.5203 269.9947 L 503.325 269.9947 L 541.6216 267.968 L 535.8552 285.2293 L 502.313 286.8872 ZM 489.3377 235.7256 L 527.9478 235.7256 L 527.9478 227.0048 C 527.9478 223.1026 526.6303 219.8955 523.8705 217.1857 C 521.1293 214.4813 517.8438 213.1655 513.8223 213.1655 L 503.4473 213.1655 C 499.5056 213.1655 496.2145 214.4866 493.4415 217.2043 C 490.6764 219.9061 489.3377 223.1145 489.3377 227.0048 L 489.3377 235.7256 Z" fill="#ffffff"/>
        </g>
        <g>
            <path d="M 627.4373 278.5285 L 610.2969 285.2094 L 610.2969 227.0048 C 610.2969 223.3268 609.0167 220.1409 606.3632 217.2387 C 603.8398 214.4667 600.9977 213.1655 597.4438 213.1655 L 596.3176 213.1655 L 571.6682 214.5635 L 571.6682 285.2094 L 554.5307 285.2094 L 554.5307 198.1683 L 597.7307 196.2783 C 597.736 196.2783 597.7466 196.2783 597.7519 196.2783 C 606.3074 196.2783 613.41 199.4669 619.0942 205.7352 C 624.627 211.8485 627.4373 219.0028 627.4373 227.0048 L 627.4373 278.5285 Z" fill="#ffffff"/>
        </g>
        <g>
            <path d="M 669.8217 286.8872 C 669.4127 286.8872 668.568 286.8872 638.8295 285.1828 L 634.0458 284.9096 L 639.0287 268.2188 L 669.9598 269.9947 C 672.7806 269.9602 674.9402 269.1512 676.7303 267.4256 C 678.5233 265.7199 679.36 263.5499 679.36 260.5909 C 679.36 254.7801 677.174 251.6486 672.0556 250.1338 L 650.2775 245.4557 C 643.6877 242.7699 635.8333 236.1831 635.8333 220.052 C 635.8333 213.4773 638.0034 207.937 642.2853 203.5813 C 647.1194 198.6657 653.7518 196.1895 662.0046 196.1895 C 662.3526 196.1895 662.8413 196.1895 688.2688 197.8752 L 693.0153 215.0994 L 661.8452 213.0833 C 653.6616 213.131 652.9737 216.4058 652.9737 220.052 C 652.9737 223.157 653.4438 227.2567 655.6776 229.123 C 656.7109 230.0422 659.1865 231.4653 665.779 232.0621 C 674.7382 232.8116 681.4823 234.8396 686.3617 238.251 C 693.103 243.0471 696.5056 250.5569 696.5056 260.5909 C 696.5056 268.3195 693.8202 274.706 688.5238 279.6201 C 683.2938 284.4441 677.0252 286.8872 669.8217 286.8872 Z" fill="#ffffff"/>
        </g>
        <g>
            <path d="M 163.4604 392.1683 L 146.3161 392.1683 L 146.3161 311.5854 L 163.4604 304.8992 L 163.4604 392.1683 Z" fill="#ffffff"/>
        </g>
        <g>
            <path d="M 245.3235 387.7104 L 228.1846 392.1683 L 228.1846 333.9571 C 228.1846 330.2897 226.899 327.1039 224.2574 324.1951 C 221.7194 321.415 218.884 320.1192 215.33 320.1192 L 214.2024 320.1192 L 189.5612 321.5119 L 189.5612 392.1683 L 172.4143 392.1683 L 172.4143 305.114 L 215.6116 303.224 C 215.6196 303.224 215.6275 303.224 215.6354 303.224 C 224.1936 303.224 231.2896 306.41 236.9791 312.6876 C 242.5172 318.8048 245.3235 325.9591 245.3235 333.9571 L 245.3235 387.7104 Z" fill="#ffffff"/>
        </g>
        <path d="M 380.4255 197.9429 L 380.4255 301.643 L 369.6839 305.8342 L 369.6839 324.4829 L 352.5304 331.1691 L 352.5304 310.5535 L 363.2679 306.3702 L 363.2679 285.7824 L 337.2256 286.8965 C 337.2017 286.8965 337.2017 286.8965 337.2017 286.8965 C 328.6501 286.8965 321.5316 283.7066 315.8581 277.421 C 310.3146 271.2999 307.5163 264.1416 307.5163 256.1409 L 307.5163 197.9429 L 324.6526 204.6291 L 324.6526 256.0984 C 324.6526 259.7645 325.9462 262.9571 328.5877 265.8976 C 331.1151 268.6909 333.9505 269.9788 337.4952 269.9788 L 338.6732 269.9788 L 363.2679 268.8687 L 363.2679 197.9429 L 380.4255 197.9429 Z" fill="#ffffff"/>
        <g>
            <path d="M 273.1229 394.6738 L 273.1229 399.1344 C 273.1229 402.8362 274.3195 405.5977 276.8734 407.8048 C 279.5907 410.1472 282.9574 411.2905 287.162 411.2905 L 295.8266 411.2905 C 299.7962 411.2905 303.0725 409.9668 305.8456 407.2517 C 308.6133 404.5419 309.9547 401.3255 309.9547 397.4221 L 309.9547 390.6974 C 305.7592 392.7865 301.0392 393.8488 295.8266 393.8488 L 285.4582 393.8488 C 276.9026 393.8488 269.4747 390.8155 263.3828 384.8442 C 257.2882 378.8702 254.1911 371.558 254.1911 363.1025 L 254.1911 333.9571 C 254.1911 325.8132 257.0743 318.6138 262.7692 312.5403 C 268.5703 306.3609 275.7751 303.224 284.1859 303.224 L 285.6986 303.224 L 327.0963 305.13 L 327.0963 397.4593 C 327.0963 405.8962 324.0045 413.2124 317.9046 419.2022 C 311.8153 425.1682 304.3794 428.1777 295.8266 428.1777 L 287.162 428.1777 C 278.5774 428.1777 271.1866 425.4692 265.2075 420.1055 C 259.7 415.1528 256.6321 408.9587 256.073 401.64 L 273.1229 394.6738 ZM 284.3891 320.1192 C 280.7461 320.1563 277.8562 321.4389 275.2944 324.1606 C 272.6289 326.9858 271.3327 330.1929 271.3327 333.9359 L 271.3327 363.0481 C 271.3327 366.9516 272.6767 370.1761 275.4285 372.9096 C 278.167 375.626 281.4474 376.9404 285.4582 376.9404 L 295.8266 376.9404 C 299.7962 376.9404 303.0725 375.626 305.8456 372.9096 C 308.6133 370.1999 309.9547 367.0113 309.9547 363.1476 L 309.9547 321.5225 L 284.3891 320.1192 Z" fill="#ffffff"/>
        </g>
    </g>
</svg>
