<?xml version="1.0" encoding="UTF-8" standalone="no"?>
<svg
   xmlns:svg="http://www.w3.org/2000/svg"
   xmlns="http://www.w3.org/2000/svg"
   version="1.1"
   viewBox="0 0 300 300">
  <g transform="translate(0,-752.36218)">
    <path
       d="m 82.3228,777.50469 -4.76199,0 0,-9.53081 -19.06389,0 0,9.53081 -4.76199,0 0,4.76882 28.58787,0 0,-4.76882 z m 166.78574,0 -4.762,0 0,-9.53081 -19.0616,0 0,9.53081 -4.7643,0 0,4.76882 28.5879,0 0,-4.76882 z m 4.7756,52.42058 -9.5376,0 0,-9.52853 4.762,-2.37643 4.7756,2.37643 0,9.52853 z m -204.92487,-9.52853 4.77566,-2.39238 4.76199,2.39238 0,9.52853 -9.53765,0 0,-9.52853 z m 233.51277,9.52853 -38.1255,-38.12095 0,-4.76654 -185.84962,0 0,4.76654 -38.11184,38.12095 -4.77566,0 0,4.76884 71.48676,0 0,-4.76884 -23.83728,0 0,-11.97559 -9.52397,-4.64807 -9.53764,4.42706 0,12.1966 -19.06162,0 33.36125,-33.35669 19.06389,0 0,-4.76426 147.72413,0 0,4.76426 19.0616,0 33.3635,33.35669 -19.0639,0 0,-11.97559 -9.5376,-4.86908 -9.524,4.64807 0,12.1966 -23.8236,0 0,4.76884 71.4868,0 0,-4.76884 -4.7757,0 z m -9.5376,147.73094 -9.524,0 0,-100.0746 9.524,0 0,100.0746 z m -14.2883,-61.9514 -14.2996,0 0,-28.5924 14.2996,0 0,28.5924 z m 0,57.1871 -14.2996,0 0,-38.1277 14.2996,0 0,38.1277 z m -19.0616,4.7643 -9.5376,0 0,-100.0746 9.5376,0 0,100.0746 z m -14.2996,-61.9514 -14.2996,0 0,-28.5924 14.2996,0 0,28.5924 z m 0,57.1871 -14.2996,0 0,-38.1277 14.2996,0 0,38.1277 z m -33.3499,-57.1871 -14.2996,0 0,-28.5924 14.2996,0 0,28.5924 z m 0,57.1871 -14.2996,0 0,-38.1277 14.2996,0 0,38.1277 z m -19.0616,4.7643 -9.5376,0 0,-100.0746 9.5376,0 0,100.0746 z m -14.3019,-61.9514 -14.2996,0 0,-28.5924 14.2996,0 0,28.5924 z m 0,57.1871 -14.2996,0 0,-38.1277 14.2996,0 0,38.1277 z m -19.06161,4.7643 -9.52397,0 0,-100.0746 9.52397,0 0,100.0746 z m -14.28824,-61.9514 -14.29963,0 0,-28.5924 14.29963,0 0,28.5924 z m 0,57.1871 -14.29963,0 0,-38.1277 14.29963,0 0,38.1277 z m -33.36125,-57.1871 -14.29963,0 0,-28.5924 14.29963,0 0,28.5924 z m 0,57.1871 -14.29963,0 0,-38.1277 14.29963,0 0,38.1277 z m -19.07528,4.7643 -9.52626,0 0,-100.0746 9.52626,0 0,100.0746 z m -14.28824,-61.9514 -14.29963,0 0,-28.5924 14.29963,0 0,28.5924 z m 0,57.1871 -14.29963,0 0,-38.1277 14.29963,0 0,38.1277 z m -19.06162,4.7643 -9.53764,0 0,-100.0746 9.53764,0 0,100.0746 z m 243.03674,-138.1978 -71.4867,0 0,14.295 66.7247,0 0,4.7643 -4.7756,0 0,14.2996 -9.524,0 0,-14.2996 -4.7643,0 0,14.2996 -14.2996,0 0,-14.2996 -4.762,0 0,14.2996 -9.5376,0 0,-14.2996 -4.762,0 0,14.2996 -14.2996,0 0,-14.2996 -4.762,0 0,14.2996 -9.5263,0 0,-14.2996 -4.762,0 0,14.2996 -14.2996,0 0,-14.2996 -4.762,0 0,14.2996 -9.5376,0 0,-14.2996 -4.7643,0 0,14.2996 -14.2996,0 0,-14.2996 -4.76201,0 0,14.2996 -9.52397,0 0,-14.2996 -4.76427,0 0,14.2996 -14.29963,0 0,-14.2996 -4.77566,0 0,14.2996 -9.52397,0 0,-14.2996 -4.76199,0 0,14.2996 -14.29963,0 0,-14.2996 -4.77565,0 0,14.2996 -9.52626,0 0,-14.2996 -4.76198,0 0,14.2996 -14.29963,0 0,-14.2996 -4.76199,0 0,14.2996 -9.53764,0 0,-14.2996 -4.76199,0 0,-4.7643 66.72477,0 0,-14.295 -71.47536,0 0,142.9621 -4.77566,0 0,4.7665 76.25102,0 0,-9.5308 4.76199,0 0,-100.0746 9.52397,0 0,100.0746 -9.52397,0 0,9.5308 109.60091,0 0,-9.5308 -9.5263,0 0,-100.0746 9.5263,0 0,100.0746 4.762,0 0,9.5308 76.2624,0 0,-4.7665 -4.7757,0 0,-142.9621 z m -76.2487,14.295 0,-14.295 -109.60091,0 0,14.295 109.60091,0 z M 44.19729,1025.308 l 14.29963,0 0,9.5308 -14.29963,0 0,-9.5308 z m 0,-28.59239 14.29963,0 0,19.06379 -14.29963,0 0,-19.06379 z m 28.58787,0 23.83727,0 0,38.12319 -23.83727,0 0,-38.12319 z m 38.1369,28.59239 14.29963,0 0,9.5308 -14.29963,0 0,-9.5308 z m 0,-28.59239 14.29963,0 0,19.06379 -14.29963,0 0,-19.06379 z m 33.34988,28.59239 14.2996,0 0,9.5308 -14.2996,0 0,-9.5308 z m 0,-28.59239 14.2996,0 0,19.06379 -14.2996,0 0,-19.06379 z m 33.3635,28.59239 14.2996,0 0,9.5308 -14.2996,0 0,-9.5308 z m 0,-28.59239 14.2996,0 0,19.06379 -14.2996,0 0,-19.06379 z m 28.5879,0 23.8236,0 0,38.12319 -23.8236,0 0,-38.12319 z m 38.1232,28.59239 14.2996,0 0,9.5308 -14.2996,0 0,-9.5308 z m 0,-28.59239 14.2996,0 0,19.06379 -14.2996,0 0,-19.06379 z m -223.96146,42.89199 262.08696,0 0,-47.65399 -262.08696,0 0,47.65399 z m 169.10066,-209.68233 -38.064,-17.8677 -36.94983,17.8677 -11.51307,0 48.4629,-23.8236 48.251,23.8236 -10.187,0 z m -30.9142,0 -4.762,0 0,-6.55057 -4.762,0 0,6.55057 -4.7756,0 -13.77333,-3.38579 1.01164,-3.76174 12.73659,3.13061 0.025,-5.51161 4.7757,0 0,-4.76654 4.762,0 0,4.76654 4.7619,0 0,5.51161 12.7389,-3.13061 0.9251,3.68655 -13.664,3.46098 z m 52.4138,0 -59.5636,-28.59242 -59.5613,28.59242 0,4.76884 119.1249,0 0,-4.76884"
       style="fill:#bb9852;fill-opacity:1;fill-rule:nonzero;stroke:none" />
    <path
       d="m 58.49692,782.27351 0,4.76427 19.06389,0 0,-4.76427 -19.06389,0 0,0"
       style="fill:#365B74;fill-opacity:1;fill-rule:nonzero;stroke:none" />
    <path
       d="m 225.28494,782.27351 0,4.76427 19.0616,0 0,-4.76427 -19.0616,0 0,0"
       style="fill:#365B74;fill-opacity:1;fill-rule:nonzero;stroke:none" />
    <path
       d="m 29.89766,877.58161 0,100.0746 9.53764,0 0,-100.0746 -9.53764,0 0,0"
       style="fill:#365B74;fill-opacity:1;fill-rule:nonzero;stroke:none" />
    <path
       d="m 63.2589,877.58161 0,100.0746 9.52626,0 0,-100.0746 -9.52626,0 0,0"
       style="fill:#365B74;fill-opacity:1;fill-rule:nonzero;stroke:none" />
    <path
       d="m 96.62243,877.58161 0,100.0746 9.52397,0 0,-100.0746 -9.52397,0 0,0"
       style="fill:#365B74;fill-opacity:1;fill-rule:nonzero;stroke:none" />
    <path
       d="m 129.98596,877.58161 0,100.0746 9.52397,0 0,-100.0746 -9.52397,0 0,0"
       style="fill:#365B74;fill-opacity:1;fill-rule:nonzero;stroke:none" />
    <path
       d="m 163.33584,877.58161 0,100.0746 9.5376,0 0,-100.0746 -9.5376,0 0,0"
       style="fill:#365B74;fill-opacity:1;fill-rule:nonzero;stroke:none" />
    <path
       d="m 196.69704,877.58161 0,100.0746 9.5263,0 0,-100.0746 -9.5263,0 0,0"
       style="fill:#365B74;fill-opacity:1;fill-rule:nonzero;stroke:none" />
    <path
       d="m 230.04694,877.58161 0,100.0746 9.5376,0 0,-100.0746 -9.5376,0 0,0"
       style="fill:#365B74;fill-opacity:1;fill-rule:nonzero;stroke:none" />
    <path
       d="m 263.41044,877.58161 0,100.0746 9.524,0 0,-100.0746 -9.524,0 0,0"
       style="fill:#365B74;fill-opacity:1;fill-rule:nonzero;stroke:none" />
    <path
       d="m 44.19729,996.71561 14.29963,0 0,19.06379 -14.29963,0 0,-19.06379"
       style="fill:#365B74;fill-opacity:1;fill-rule:nonzero;stroke:none" />
    <path
       d="m 44.19729,1025.308 14.29963,0 0,9.5308 -14.29963,0 0,-9.5308"
       style="fill:#365B74;fill-opacity:1;fill-rule:nonzero;stroke:none" />
    <path
       d="m 110.92206,996.71561 14.29963,0 0,19.06379 -14.29963,0 0,-19.06379"
       style="fill:#365B74;fill-opacity:1;fill-rule:nonzero;stroke:none" />
    <path
       d="m 110.92206,1025.308 14.29963,0 0,9.5308 -14.29963,0 0,-9.5308"
       style="fill:#365B74;fill-opacity:1;fill-rule:nonzero;stroke:none" />
    <path
       d="m 144.27194,996.71561 14.2996,0 0,19.06379 -14.2996,0 0,-19.06379"
       style="fill:#365B74;fill-opacity:1;fill-rule:nonzero;stroke:none" />
    <path
       d="m 144.27194,1025.308 14.2996,0 0,9.5308 -14.2996,0 0,-9.5308"
       style="fill:#365B74;fill-opacity:1;fill-rule:nonzero;stroke:none" />
    <path
       d="m 177.63544,996.71561 14.2996,0 0,19.06379 -14.2996,0 0,-19.06379"
       style="fill:#365B74;fill-opacity:1;fill-rule:nonzero;stroke:none" />
    <path
       d="m 177.63544,1025.308 14.2996,0 0,9.5308 -14.2996,0 0,-9.5308"
       style="fill:#365B74;fill-opacity:1;fill-rule:nonzero;stroke:none" />
    <path
       d="m 244.34654,996.71561 14.2996,0 0,19.06379 -14.2996,0 0,-19.06379"
       style="fill:#365B74;fill-opacity:1;fill-rule:nonzero;stroke:none" />
    <path
       d="m 244.34654,1025.308 14.2996,0 0,9.5308 -14.2996,0 0,-9.5308"
       style="fill:#365B74;fill-opacity:1;fill-rule:nonzero;stroke:none" />
    <path
       d="m 72.78516,996.71561 23.83727,0 0,38.12319 -23.83727,0 0,-38.12319"
       style="fill:#365B74;fill-opacity:1;fill-rule:nonzero;stroke:none" />
    <path
       d="m 206.22334,996.71561 23.8236,0 0,38.12319 -23.8236,0 0,-38.12319"
       style="fill:#365B74;fill-opacity:1;fill-rule:nonzero;stroke:none" />
    <path
       d="m 282.47204,991.95361 4.7757,-4.7666 -76.2624,0 0,-9.5308 -4.762,0 0,9.5308 -109.60091,0 0,-9.5308 -4.76199,0 0,9.5308 -76.25102,0 4.77566,4.7666 262.08696,0 0,0"
       style="fill:#365B74;fill-opacity:1;fill-rule:nonzero;stroke:none" />
    <path
       d="m 48.95927,820.39674 0,9.52853 9.53765,0 0,-9.52853 -4.76199,-2.39238 -4.77566,2.39238 0,0"
       style="fill:#365B74;fill-opacity:1;fill-rule:nonzero;stroke:none" />
    <path
       d="m 244.34654,820.39674 0,9.52853 9.5376,0 0,-9.52853 -4.7756,-2.37643 -4.762,2.37643 0,0"
       style="fill:#365B74;fill-opacity:1;fill-rule:nonzero;stroke:none" />
    <path
       d="m 144.27194,829.92527 -13.77333,-3.38579 1.01164,-3.76174 12.73659,3.13061 0.025,-5.51161 4.7757,0 0,-4.76654 4.762,0 0,4.76654 4.7619,0 0,5.51161 12.7389,-3.13061 0.9251,3.68655 -13.664,3.46098 -4.7619,0 0,-6.55057 -4.762,0 0,6.55057 -4.7757,0 0,0"
       style="fill:#365B74;fill-opacity:1;fill-rule:nonzero;stroke:none" />
    <path
       d="m 102.95884,829.92527 48.4629,-23.8236 48.251,23.8236 -10.187,0 -38.064,-17.8677 -36.94983,17.8677 -11.51307,0 0,0"
       style="fill:#365B74;fill-opacity:1;fill-rule:nonzero;stroke:none" />
    <path
       d="m 96.62243,853.75341 0,-14.295 109.60091,0 0,14.295 -109.60091,0 z m -4.76199,-23.82814 59.5613,-28.59242 59.5636,28.59242 0,4.76884 -119.1249,0 0,-4.76884 z m 190.6116,9.53314 4.7757,-4.7643 -71.4868,0 0,-4.76884 23.8236,0 0,-12.1966 9.524,-4.64807 9.5376,4.86908 0,11.97559 19.0639,0 -33.3635,-33.35669 -19.0616,0 0,-4.76426 -147.72413,0 0,4.76426 -19.06389,0 -33.36125,33.35669 19.06162,0 0,-12.1966 9.53764,-4.42706 9.52397,4.64807 0,11.97559 23.83728,0 0,4.76884 -71.48676,0 4.77566,4.7643 71.47536,0 0,14.295 -66.72477,0 0,4.7643 4.76199,0 0,14.2996 9.53764,0 0,-14.2996 23.8236,0 0,14.2996 9.52626,0 0,-14.2996 23.83727,0 0,14.2996 9.52397,0 0,-14.2996 23.83956,0 0,14.2996 9.52397,0 0,-14.2996 23.82591,0 0,14.2996 9.5376,0 0,-14.2996 23.8236,0 0,14.2996 9.5263,0 0,-14.2996 23.8236,0 0,14.2996 9.5376,0 0,-14.2996 23.8259,0 0,14.2996 9.524,0 0,-14.2996 4.7756,0 0,-4.7643 -66.7247,0 0,-14.295 71.4867,0"
       style="fill:#365B74;fill-opacity:1;fill-rule:nonzero;stroke:none" />
  </g>
</svg>
