<?xml version="1.0" encoding="UTF-8" standalone="no"?>
<svg
   xmlns:svg="http://www.w3.org/2000/svg"
   xmlns="http://www.w3.org/2000/svg"
   version="1.1"
   viewBox="0 0 100 52">
  <g transform="translate(-325.00815,-506.38318)" fill="#365B74">
    <path
       d="m 397.87687,527.63753 0,-1.01175 c 2.6325,-1.84863 4.37,-3.07525 4.8375,-5.73388 0.18125,-1.03125 -0.1075,-2.313 -0.98875,-3.4385 -2.40375,-3.07512 -7.96125,-4.77287 -12.88375,-5.6435 -24.22287,-4.271 -47.301,4.68263 -49.047,5.44088 l -10e-4,-0.68013 c 2.064,-1.19975 28.4005,-12.01512 53.7905,-7.53662 4.91125,0.86425 9.49125,2.27675 12.00125,5.48975 0.99,1.2705 1.31625,2.62887 1.09,3.91937 -0.6,3.40188 -5.2525,7.18163 -8.79875,9.19438 l 0,0"
       style="stroke:none" />
    <path
       d="m 409.87562,526.88803 c -7.9025,0 -13.67125,5.82025 -13.67125,13.84275 0,7.82712 5.76875,13.6865 13.4825,13.6865 8.05125,0 13.97,-5.81888 13.97,-13.76563 0,-7.90425 -5.88125,-13.76362 -13.78125,-13.76362 l 0,0 z m 0.14875,3.61812 c 5.58,0 9.8875,4.40188 9.8875,10.06838 0,5.85837 -4.3075,10.26362 -10,10.26362 -5.65625,0 -9.925,-4.32462 -9.925,-10.10737 0,-5.9385 4.19375,-10.22463 10.0375,-10.22463 l 0,0"
       style="stroke:none" />
    <path
       d="m 350.01362,527.24053 -3.4825,0 0,20.80375 -17.2305,-20.80375 -2.9575,0 0,26.82025 3.44538,0 0,-20.6445 17.07862,20.6445 3.1465,0 0,-26.82025"
       style="stroke:none" />
    <path
       d="m 388.33187,537.15165 c -3.65,6.41363 -17.15125,19.61913 -17.15125,19.61913 l -1.33375,0 c 4.34625,-7.561 5.93875,-19.64213 6.3,-19.94625 l -0.0687,-0.16213 c 0,0 -2.91375,5.78375 -9.095,12.06538 -6.0345,6.13775 -8.40025,8.043 -8.40025,8.043 l -1.44425,0 c 4.6,-8.6645 7.54925,-18.32863 7.54925,-23.22025 0,-1.40625 -0.188,-2.32025 -0.96087,-2.32025 -1.77688,0 -3.67338,3.06737 -4.72275,5.36225 l -1.47063,0 c 1.98238,-4.42238 6.77975,-10.2085 9.66075,-10.2085 1.63625,0 2.26875,2.01662 2.26875,3.74862 0,9.07863 -6.412,20.90325 -6.89587,21.38425 0,0.17188 0.21825,0.1235 0.21825,0.1235 0.31162,-1.23925 5.41262,-5.63625 9.62637,-12.146 4.1575,-6.42237 7.39875,-13.48387 7.7025,-13.48387 0.10625,-0.103 0.725,1.1255 0.725,4.12212 0,10.34175 -4.9975,20.23438 -6.09875,21.415 0,0.0947 0.0875,0.13425 0.16625,0.11963 0.44875,-1.04738 4.8575,-5.41063 7.6175,-9.05913 1.02625,-1.35637 5.2675,-6.9555 4.9125,-11.95887 0,0 0.5675,-1.18563 2.5325,-3.151 0,0 1.36,-1.34763 2.1425,-1.34763 0.41,0 0.41,0.98538 0.41,0.98538 0,3.2285 -3.3175,8.4815 -4.19,10.01562 l 0,0"
       style="stroke:none" />
  </g>
</svg>
